# xmcd
#
# Track frame offsets:
#	150
#	20937
#	39762
#	60988
#	88325
#	108695
#	146708
#	166423
#	185555
#	202505
#	219305
#
# Disc length: 3147 seconds
#
# Revision: 1
# Processed by: cddbd v1.5PL3 Copyright (c) Steve Scherf et al.
# Submitted via: audiograbber 1.83.01
#
DISCID=970c490b
DTITLE=Marianne Faithfull - The Millennium Collection
DYEAR=1900
DGENRE=
TTITLE0=Broken English
TTITLE1=The Ballad Of Lucy Jordan
TTITLE2=Working Class Hero
TTITLE3=Sister Morphine
TTITLE4=So Sad
TTITLE5=The Blue Millionaire
TTITLE6=Trouble In Mind
TTITLE7=Strange Weather
TTITLE8=As Tears Go By
TTITLE9=Ghost Dance
TTITLE10=Sleep
EXTD=
EXTT0=
EXTT1=
EXTT2=
EXTT3=
EXTT4=
EXTT5=
EXTT6=
EXTT7=
EXTT8=
EXTT9=
EXTT10=
PLAYORDER=
